# xmcd
#
# Track frame offsets:
#	150
#	15280
#	33191
#	48304
#	63217
#	83696
#	97829
#	114041
#	133727
#	149921
#	165835
#	184045
#	201979
#	221727
#	238419
#	250814
#	268288
#	281996
#
# Disc length: 3936 seconds
#
# Revision: 0
# Processed by: cddbd v1.5.2PL0 Copyright (c) Steve Scherf et al.
# Submitted via: audiograbber 1.83.01
#
DISCID=010f5e12
DTITLE=Various Artist - Promo Only Country Radio February 2005
DYEAR=2005
DGENRE=Country
TTITLE0=Blake Shelton - Goodbye Time (Album Version)
TTITLE1=Shania Twain - Don't!
TTITLE2=Jimmy Buffett - Piece of Work
TTITLE3=Jo Dee Messina - My Give A Damn's Busted
TTITLE4=Lonestar - Class Reunion (That Used To Be Us)
TTITLE5=Julie Roberts - Wake Up Older (Radio Version)
TTITLE6=She Daisy - Don't Worry 'Bout A Thing
TTITLE7=Jedd Hughes - Soldier for the Lonely
TTITLE8=Lila McCann - Go Easy on Me
TTITLE9=Jeff Carson Ft. Lisa Brokop - God Save the World
TTITLE10=Rebecca Lynn Howard - That's Why I Hate Pontiacs
TTITLE11=Jay Teter - Until You Find Your Mr. Right
TTITLE12=Jessi Alexander - Canyon Prayer
TTITLE13=Tift Merritt - Good Hearted Man
TTITLE14=Wayne Warner - Something 'bout You
TTITLE15=Katrina Elam - I Want A Cowboy
TTITLE16=Be Good Tanyas, The - Opal's Blues
TTITLE17=Kelly Michelle - Clean Up Good
EXTD=
EXTT0=
EXTT1=
EXTT2=
EXTT3=
EXTT4=
EXTT5=
EXTT6=
EXTT7=
EXTT8=
EXTT9=
EXTT10=
EXTT11=
EXTT12=
EXTT13=
EXTT14=
EXTT15=
EXTT16=
EXTT17=
PLAYORDER=
